# xmcd
#
# Track frame offsets:
#	150
#	15772
#	37270
#
# Disc length: 868 seconds
#
# Revision: 0
# Processed by: cddbd v1.5.2PL0 Copyright (c) Steve Scherf et al.
# Submitted via: audiograbber 1.83.01
#
DISCID=18036203
DTITLE=Movetron - Lähden [CDM)
DYEAR=1997
DGENRE=Dance
TTITLE0=Lähden
TTITLE1=Lähden (Disco Mix)
TTITLE2=Lähden (Extended Disco Mix)
EXTD=TR.
EXTT0=
EXTT1=
EXTT2=
PLAYORDER=
